# Blender v2.79 (sub 0) OBJ File: ''
# www.blender.org
mtllib translate2.mtl
o Cube.002
v 0.027444 0.961037 -0.027444
v 0.027444 0.140443 -0.027444
v -0.027444 0.140443 -0.027444
v -0.027444 0.961037 -0.027444
v 0.027444 0.961037 0.027444
v -0.027444 0.961037 0.027444
v -0.027444 0.140443 0.027444
v 0.027444 0.140443 0.027444
v 0.053017 0.971284 -0.053017
v 0.053017 0.971284 0.053017
v -0.053017 0.971284 0.053017
v 0.001579 1.114624 0.001579
v -0.001579 1.114624 -0.001579
v -0.053017 0.971284 -0.053017
vn 0.0000 0.0000 -1.0000
vn 0.0000 -0.0000 1.0000
vn 1.0000 0.0000 0.0000
vn 0.0000 -1.0000 0.0000
vn -1.0000 0.0000 0.0000
vn 0.3720 -0.9283 0.0000
vn -0.0271 0.3468 0.9376
vn 0.0000 -0.9283 0.3720
vn -0.3720 -0.9283 0.0000
vn 0.0000 -0.9283 -0.3720
vn 0.9376 0.3468 -0.0271
vn -0.9412 0.3378 0.0000
vn 0.0000 0.3378 -0.9412
usemtl Material.005
s 1
f 1//1 2//1 3//1 4//1
f 5//2 6//2 7//2 8//2
f 1//3 5//3 8//3 2//3
f 2//4 8//4 7//4 3//4
f 3//5 7//5 6//5 4//5
f 5//6 1//6 9//6 10//6
f 11//7 10//7 12//7 13//7
f 6//8 5//8 10//8 11//8
f 4//9 6//9 11//9 14//9
f 1//10 4//10 14//10 9//10
f 10//11 9//11 13//11 12//11
f 14//12 11//12 13//12
f 9//13 14//13 13//13
o Cube.003
v 0.027444 -0.027444 -0.998053
v 0.027444 -0.027444 -0.143968
v -0.027444 -0.027444 -0.143968
v -0.027444 -0.027444 -0.998053
v 0.027444 0.027444 -0.998053
v -0.027444 0.027444 -0.998053
v -0.027444 0.027444 -0.143968
v 0.027444 0.027444 -0.143968
v 0.053017 -0.053017 -1.008300
v 0.053017 0.053017 -1.008300
v -0.053017 0.053017 -1.008300
v 0.001579 0.001579 -1.151640
v -0.001579 -0.001579 -1.151640
v -0.053017 -0.053017 -1.008300
vn 0.0000 -1.0000 -0.0000
vn 0.0000 1.0000 0.0000
vn 1.0000 0.0000 0.0000
vn 0.0000 0.0000 1.0000
vn -1.0000 0.0000 0.0000
vn 0.3720 0.0000 0.9283
vn -0.0271 0.9376 -0.3468
vn 0.0000 0.3719 0.9283
vn -0.3719 0.0000 0.9283
vn 0.0000 -0.3719 0.9283
vn 0.9376 -0.0271 -0.3468
vn -0.9412 0.0000 -0.3378
vn 0.0000 -0.9412 -0.3378
usemtl Material.006
s 1
f 15//14 16//14 17//14 18//14
f 19//15 20//15 21//15 22//15
f 15//16 19//16 22//16 16//16
f 16//17 22//17 21//17 17//17
f 17//18 21//18 20//18 18//18
f 19//19 15//19 23//19 24//19
f 25//20 24//20 26//20 27//20
f 20//21 19//21 24//21 25//21
f 18//22 20//22 25//22 28//22
f 15//23 18//23 28//23 23//23
f 24//24 23//24 27//24 26//24
f 28//25 25//25 27//25
f 23//26 28//26 27//26
o Cube.001
v 0.961037 -0.027444 -0.027444
v 0.141930 -0.027444 -0.027444
v 0.141930 0.027444 -0.027444
v 0.961037 0.027444 -0.027444
v 0.961037 -0.027444 0.027444
v 0.961037 0.027444 0.027444
v 0.141930 0.027444 0.027444
v 0.141930 -0.027444 0.027444
v 0.971284 -0.053017 -0.053017
v 0.971284 -0.053017 0.053017
v 0.971284 0.053017 0.053017
v 1.114624 -0.001579 0.001579
v 1.114624 0.001579 -0.001579
v 0.971284 0.053017 -0.053017
vn 0.0000 0.0000 -1.0000
vn 0.0000 -0.0000 1.0000
vn 0.0000 -1.0000 -0.0000
vn -1.0000 0.0000 0.0000
vn 0.0000 1.0000 0.0000
vn -0.9283 -0.3720 -0.0000
vn 0.3468 0.0271 0.9376
vn -0.9283 0.0000 0.3720
vn -0.9283 0.3720 0.0000
vn -0.9283 -0.0000 -0.3720
vn 0.3468 -0.9376 -0.0271
vn 0.3378 0.9412 0.0000
vn 0.3378 0.0000 -0.9412
usemtl Material.007
s 1
f 29//27 30//27 31//27 32//27
f 33//28 34//28 35//28 36//28
f 29//29 33//29 36//29 30//29
f 30//30 36//30 35//30 31//30
f 31//31 35//31 34//31 32//31
f 33//32 29//32 37//32 38//32
f 39//33 38//33 40//33 41//33
f 34//34 33//34 38//34 39//34
f 32//35 34//35 39//35 42//35
f 29//36 32//36 42//36 37//36
f 38//37 37//37 41//37 40//37
f 42//38 39//38 41//38
f 37//39 42//39 41//39
