# Blender v2.82 (sub 7) OBJ File: ''
# www.blender.org
mtllib particle.mtl
o Plane
v -0.502081 0.001515 0.499101
v 0.497919 0.001515 0.499101
v -0.502081 0.001515 -0.500899
v 0.497919 0.001515 -0.500899
v -0.000996 0.600725 0.001898
v 0.000836 -0.598609 0.000066
vt 0.000000 0.000000
vt 0.000000 0.000000
vt 0.000000 0.000000
vt 0.000000 0.000000
vt 0.000000 0.000000
vt 0.000000 0.000000
vn 0.0000 0.6386 0.7696
vn 0.7685 0.6399 0.0000
vn 0.0000 0.6428 -0.7660
vn -0.7671 0.6415 0.0000
vn 0.0000 -0.6408 -0.7677
vn -0.7665 -0.6423 0.0000
vn 0.0000 -0.6394 0.7689
vn 0.7701 -0.6379 0.0000
usemtl None
s off
f 2/1/1 5/2/1 1/3/1
f 4/4/2 5/2/2 2/1/2
f 4/4/3 3/5/3 5/2/3
f 3/5/4 1/3/4 5/2/4
f 4/4/5 6/6/5 3/5/5
f 3/5/6 6/6/6 1/3/6
f 2/1/7 1/3/7 6/6/7
f 4/4/8 2/1/8 6/6/8
