# Blender v2.81 (sub 16) OBJ File: ''
# www.blender.org
mtllib material.mtl
o Cube_Cube.003
v 1.000000 1.000000 1.000000
v -1.000000 -1.000000 1.000000
v 1.000000 -1.000000 1.000000
v 1.000000 1.000000 -1.000000
v -1.000000 -1.000000 -1.000000
v 1.000000 -1.000000 -1.000000
vt 0.833333 1.166667
vt -0.166667 0.166667
vt 0.833333 0.166667
vt -0.166667 1.000000
vt 0.833333 1.000000
vt 0.833333 0.000000
vt -0.166667 0.000000
vt 0.166667 0.000000
vt 1.166667 0.000000
vt 1.166667 1.000000
vt 0.166667 1.000000
vt 0.833333 0.000000
vt 0.833333 1.000000
vt 0.833333 0.166667
vt -0.166667 0.166667
vt 0.833333 1.166667
vn 0.0000 -0.0000 1.0000
vn -0.7071 0.7071 0.0000
vn 1.0000 0.0000 0.0000
vn 0.0000 -1.0000 -0.0000
vn 0.0000 0.0000 -1.0000
usemtl Default_OBJ
s 1
f 1/1/1 2/2/1 3/3/1
f 2/4/2 1/5/2 4/6/2 5/7/2
f 6/8/3 4/9/3 1/10/3 3/11/3
f 5/7/4 6/12/4 3/13/4 2/4/4
f 6/14/5 5/15/5 4/16/5
