# Blender v2.82 (sub 7) OBJ File: 'city walls.blend'
# www.blender.org
o PavementDefault
v -20.000000 -0.000001 8.000000
v 12.485264 -0.000001 8.000000
v 12.485264 0.000001 -8.000000
v -20.000000 0.000001 -8.000000
v -12.000000 -0.500001 8.000000
v -12.000000 -0.499999 -8.000000
v 12.000000 -0.500001 8.000000
v 12.000000 -0.499999 -8.000000
v 20.000000 -0.000001 8.000000
v 20.000000 0.000001 -8.000000
v -12.605406 -0.000001 8.000000
v -12.605406 0.000001 -8.000000
v -12.559931 0.075518 8.000000
v -12.605406 0.030043 8.000000
v -12.000000 0.030043 8.000000
v -12.045475 0.075518 8.000000
v -12.045475 0.075518 -8.000000
v -12.000000 0.030043 -8.000000
v -12.605406 0.030043 -8.000000
v -12.559931 0.075518 -8.000000
v 12.000000 0.030043 -8.000000
v 12.045475 0.075518 -8.000000
v 12.439789 0.075518 -8.000000
v 12.485264 0.030043 -8.000000
v 12.485264 0.030043 8.000000
v 12.439789 0.075518 8.000000
v 12.045475 0.075518 8.000000
v 12.000000 0.030043 8.000000
vt 2.009439 -0.500000
vt 2.009439 1.500000
vt 2.058728 1.500000
vt 2.058728 -0.500000
vt 0.500972 1.500000
vt 0.500972 -0.500000
vt 0.504727 -0.500000
vt 0.504727 1.500000
vt 3.621316 -1.500000
vt 3.621316 2.500000
vt 5.500000 2.500000
vt 5.500000 -1.500000
vt -4.500000 2.500000
vt -2.651351 2.500000
vt -2.651351 -1.500000
vt -4.500000 -1.500000
vt 0.500972 -0.500000
vt 0.500972 1.500000
vt 0.504727 1.500000
vt 0.504727 -0.500000
vt 0.504727 -0.500000
vt 0.438472 -0.500000
vt 0.438472 1.500000
vt 0.504727 1.500000
vt 0.438472 -0.500000
vt 0.504727 -0.500000
vt 0.504727 1.500000
vt 0.438472 1.500000
vt 2.064412 1.500000
vt 2.064412 -0.500000
vt -0.996246 1.500000
vt -0.996246 -0.500000
vt -1.001930 -0.500000
vt -1.001930 1.500000
vt -1.066237 1.500000
vt -1.066237 -0.500000
vt -1.071921 -0.500000
vt -1.071921 1.500000
vt 2.003754 -0.500000
vt 2.003754 1.500000
vn 0.0000 1.0000 0.0000
vn 1.0000 0.0000 0.0000
vn -1.0000 0.0000 0.0000
vn 0.7071 0.7071 0.0000
vn -0.7071 0.7071 0.0000
s 1
f 22/1/1 27/2/1 26/3/1 23/4/1
f 2/5/2 3/6/2 24/7/2 25/8/2
f 3/9/1 2/10/1 9/11/1 10/12/1
f 1/13/1 11/14/1 12/15/1 4/16/1
f 12/17/3 11/18/3 14/19/3 19/20/3
f 21/21/3 8/22/3 7/23/3 28/24/3
f 6/25/2 18/26/2 15/27/2 5/28/2
f 25/29/4 24/30/4 23/4/4 26/3/4
f 15/31/4 18/32/4 17/33/4 16/34/4
f 13/35/5 20/36/5 19/37/5 14/38/5
f 27/2/5 22/1/5 21/39/5 28/40/5
f 13/35/1 16/34/1 17/33/1 20/36/1
o RoadDefault
v -12.000000 -0.500001 8.000000
v -12.000000 -0.499999 -8.000000
v 12.000000 -0.500001 8.000000
v 12.000000 -0.499999 -8.000000
v 0.070817 -0.224833 -8.000000
v 0.070817 -0.224835 8.000000
v 6.070608 -0.316274 -8.000000
v 6.070608 -0.316276 8.000000
v -5.964592 -0.316274 -8.000000
v -5.964592 -0.316276 8.000000
vt 2.006600 -1.500000
vt 2.006600 2.500000
vt 3.488948 2.500000
vt 3.488948 -1.500000
vt -1.002200 -1.500000
vt -1.002200 2.500000
vt 0.506652 2.500000
vt 0.506652 -1.500000
vt -2.511052 -1.500000
vt -2.511052 2.500000
vn 0.0231 0.9997 0.0000
vn 0.0310 0.9995 0.0000
vn -0.0228 0.9997 0.0000
vn 0.0000 1.0000 0.0000
vn -0.0304 0.9995 0.0000
s 1
f 35/41/6 36/42/6 31/43/7 32/44/7
f 37/45/8 38/46/8 34/47/9 33/48/9
f 33/48/9 34/47/9 36/42/6 35/41/6
f 30/49/10 29/50/10 38/46/8 37/45/8
