# Blender v2.82 (sub 7) OBJ File: 'city walls.blend'
# www.blender.org
o Stairs
v -0.796643 -0.391155 3.417157
v -0.796643 -0.391155 -3.417157
v 0.796643 -0.391155 3.417157
v 0.796643 -0.391155 -3.417157
v 0.796643 1.751551 -3.298320
v 0.796643 1.751551 3.298320
v -0.796643 0.671501 -3.417157
v 0.796643 0.671501 -3.417157
v 0.796643 0.671501 3.417157
v -0.796643 0.671501 3.417157
v -2.170325 -0.391155 -3.417157
v -2.170325 -0.391155 3.417157
v -0.765495 2.734491 3.417157
v -0.765495 2.796814 3.283549
v -0.796643 2.734491 3.283549
v -0.796643 2.734491 -3.283549
v -0.765495 2.796814 -3.283549
v -0.765495 2.734491 -3.417157
v 0.733477 2.796814 3.283549
v 0.796643 2.717097 3.298320
v 0.796643 2.717097 -3.298320
v 0.711047 2.796814 -3.283549
v -0.796643 1.734157 3.283549
v -0.765495 1.671834 3.417157
v -0.765495 1.671834 -3.417157
v -0.796643 1.734157 -3.283549
v -2.139177 0.609178 -3.417157
v -2.170325 0.671501 -3.283549
v -2.170325 0.671501 3.283549
v -2.139177 0.609178 3.417157
v -2.139177 1.671834 3.417157
v -2.139177 1.734157 3.283549
v -2.170325 1.671834 3.283549
v -2.139177 1.734157 -3.283549
v -2.139177 1.671834 -3.417157
v -2.170325 1.671834 -3.283549
v -3.463497 -0.391155 -3.283549
v -3.432348 -0.391155 -3.417157
v -3.432348 -0.391155 3.417157
v -3.463497 -0.391155 3.283549
v -3.432348 0.609178 -3.417157
v -3.463497 0.609178 -3.283549
v -3.432348 0.671501 -3.283549
v -3.432348 0.609178 3.417157
v -3.432348 0.671501 3.283549
v -3.463497 0.609178 3.283549
vt 1.222202 0.177514
vt 1.222202 0.432764
vt 0.214070 0.432764
vt 0.214070 0.177514
vt 0.492995 0.433777
vt 0.710462 0.428513
vt 0.710462 0.660667
vt 0.479446 0.660667
vt -0.095197 0.680364
vt -0.095197 0.919513
vt 1.095197 0.919513
vt 1.095197 0.680364
vt 0.491560 0.402408
vt 0.670171 0.402408
vt 0.670171 0.088140
vt 0.502035 0.088140
vt 0.142376 0.417213
vt 1.293895 0.417213
vt 1.293895 0.667781
vt 0.142376 0.667781
vt 0.323424 0.408674
vt 0.312949 0.678763
vt 0.491560 0.678763
vt -0.104288 0.200972
vt -0.104288 0.424896
vt 1.010317 0.424895
vt 1.010317 0.200972
vt 0.142376 0.673594
vt 1.293895 0.673594
vt 1.293895 0.909136
vt 0.142376 0.909136
vt 0.144813 0.408674
vt 0.323424 0.088140
vt 0.144813 0.088140
vt 0.261979 0.164510
vt 0.492995 0.164510
vt 0.261979 0.433777
vt 0.144813 0.685029
vt 0.261979 0.665931
vt 0.479446 0.879215
vt 0.261979 0.879215
vt 0.724010 0.164510
vt 0.144813 0.938920
vt 0.312949 0.938920
vt -0.136007 0.412778
vt -0.136007 0.652593
vt 1.057697 0.652593
vt 1.057697 0.412778
vt 0.941478 0.428513
vt 0.955026 0.428513
vt 0.941478 0.433777
vt 1.095197 0.934413
vt 1.119415 0.919513
vt 0.724011 0.660667
vt 0.710462 0.665931
vt 1.317323 0.667781
vt 1.293895 0.673594
vt 0.312949 0.945187
vt 0.323424 0.938920
vt 0.492995 0.879215
vt 0.479446 0.884479
vt 0.724011 0.433777
vt 1.222202 0.437853
vt 0.214070 0.437853
vt 1.242712 0.177514
vt 1.242712 0.432764
vt 0.193559 0.432764
vt 0.193559 0.177514
vt 0.502035 0.408674
vt 0.670171 0.408674
vt 0.492995 0.665931
vt 0.142376 0.673594
vt 0.323424 0.685029
vt 0.491560 0.685029
vt 0.118949 0.667781
vt 0.118949 0.417213
vt 0.502035 0.678763
vt 0.144813 0.945187
vt 0.261979 0.884479
vt 1.293895 0.914949
vt 0.142376 0.914949
vt 0.941478 0.164510
vt 0.656102 1.343273
vt 0.670692 0.347371
vt 0.711781 0.327110
vt 0.711781 1.363535
vt 0.113005 0.438452
vt 1.123788 0.438452
vt 1.123788 0.660211
vt 0.118396 0.659028
vn 0.0000 1.0000 0.0000
vn 0.0000 0.0000 1.0000
vn -1.0000 0.0000 0.0000
vn 0.0759 0.0000 -0.9971
vn -0.0000 0.0000 -1.0000
vn 0.0362 0.0565 0.9978
vn 0.0362 0.0565 -0.9978
vn -0.8757 0.4376 0.2041
vn -0.8757 0.4376 -0.2041
vn -0.9739 0.0000 0.2270
vn -0.8945 0.4471 0.0000
vn 0.0308 0.7309 -0.6818
vn 0.0307 0.7285 0.6843
vn -0.9739 0.0000 -0.2270
vn 0.0000 0.9063 0.4227
vn 0.0000 0.9063 -0.4227
vn 0.0759 0.0000 0.9971
vn 0.7312 0.6822 -0.0012
vn 1.0000 0.0000 0.0000
s off
f 22/1/1 17/2/1 14/3/1 19/4/1
f 10/5/2 24/6/2 31/7/2 30/8/2
f 23/9/3 15/10/3 16/11/3 26/12/3
f 25/13/4 18/14/4 21/15/4 5/16/4
f 23/17/1 26/18/1 34/19/1 32/20/1
f 25/13/5 7/21/5 27/22/5 35/23/5
f 40/24/3 46/25/3 42/26/3 37/27/3
f 29/28/1 28/29/1 43/30/1 45/31/1
f 2/32/5 7/21/5 8/33/5 4/34/5
f 3/35/2 9/36/2 10/5/2 1/37/2
f 7/21/5 2/32/5 11/38/5 27/22/5
f 12/39/2 30/8/2 44/40/2 39/41/2
f 9/36/6 6/42/6 24/6/6 10/5/6
f 7/21/7 25/13/7 5/16/7 8/33/7
f 27/22/5 11/38/5 38/43/5 41/44/5
f 1/37/2 10/5/2 30/8/2 12/39/2
f 29/45/3 33/46/3 36/47/3 28/48/3
f 13/49/8 14/50/8 15/51/8
f 16/11/9 17/52/9 18/53/9
f 31/7/8 32/54/8 33/55/8
f 34/19/9 35/56/9 36/57/9
f 41/44/9 42/58/9 43/59/9
f 44/40/8 45/60/8 46/61/8
f 24/6/10 13/49/10 15/51/10 23/62/10
f 14/3/11 17/2/11 16/63/11 15/64/11
f 17/2/12 22/1/12 21/65/12 18/66/12
f 19/4/13 14/3/13 13/67/13 20/68/13
f 18/14/14 25/13/14 26/69/14 16/70/14
f 30/8/10 31/7/10 33/55/10 29/71/10
f 32/20/11 34/19/11 36/57/11 33/72/11
f 35/23/14 27/22/14 28/73/14 36/74/14
f 23/17/15 32/20/15 31/75/15 24/76/15
f 25/13/16 35/23/16 34/77/16 26/69/16
f 41/44/14 38/43/14 37/78/14 42/58/14
f 39/41/10 44/40/10 46/61/10 40/79/10
f 45/31/11 43/30/11 42/80/11 46/81/11
f 27/22/16 41/44/16 43/59/16 28/73/16
f 44/40/15 30/8/15 29/71/15 45/60/15
f 6/42/17 20/82/17 13/49/17 24/6/17
f 22/83/18 19/84/18 20/85/18 21/86/18
f 6/87/19 5/88/19 21/89/19 20/90/19
