# Blender v2.82 (sub 7) OBJ File: 'city walls.blend'
# www.blender.org
o CutoutMiddle
v -0.000000 12.749885 8.710118
v 0.000000 -0.226010 8.710118
v -0.000000 12.749885 3.787706
v 0.000000 -0.226010 3.787706
v -0.000000 11.215615 8.710118
v -0.000000 11.215615 3.787706
v -0.000000 12.749885 -3.549217
v -0.000000 11.215615 -3.549217
v -0.000000 12.749885 -8.665588
v -0.000000 11.215615 -8.665588
v -0.000000 -0.112912 -3.549217
v -0.000000 -0.112912 -8.665588
vt -1.299753 2.034288
vt -1.299753 -1.449016
vt -0.024030 -1.449016
vt -0.024030 2.034288
vt -1.299753 2.501383
vt -0.024030 2.501383
vt 1.877453 2.034287
vt 1.877453 2.501383
vt 3.203443 2.034287
vt 3.203443 2.501382
vt 1.877453 -1.414585
vt 3.203443 -1.414585
vn 1.0000 0.0000 0.0000
s off
f 5/1/1 2/2/1 4/3/1 6/4/1
f 1/5/1 5/1/1 6/4/1 3/6/1
f 3/6/1 6/4/1 8/7/1 7/8/1
f 7/8/1 8/7/1 10/9/1 9/10/1
f 10/9/1 8/7/1 11/11/1 12/12/1
