# Blender v2.82 (sub 7) OBJ File: 'city walls.blend'
# www.blender.org
o Frame
v -0.640255 12.656088 -0.603025
v -0.640255 13.201888 -0.603025
v -0.640255 12.656088 -15.999999
v -0.640255 13.201888 -15.999999
v 0.546125 12.656088 -0.603025
v 0.661409 12.735013 -0.603025
v 0.661409 13.122963 -0.603025
v 0.546125 13.201888 -0.603025
v 0.661409 12.735013 -15.954121
v 0.546125 12.656088 -15.999999
v 0.661409 13.122963 -15.954121
v 0.546125 13.201888 -15.999999
v -0.781165 -0.534796 0.781165
v -0.781165 0.534798 0.781165
v -0.781165 -0.534796 -0.781165
v -0.781165 0.534798 -0.781165
v 0.781165 -0.534796 0.781165
v 0.781165 0.534798 0.781165
v 0.781165 -0.534796 -0.781165
v 0.781165 0.534798 -0.781165
v -0.714972 0.627110 0.714972
v -0.714972 0.627110 -0.714972
v 0.714972 0.627110 -0.714972
v 0.714972 0.627110 0.714972
v -0.757902 0.655467 0.757902
v -0.757902 0.655467 -0.757902
v 0.757902 0.655467 -0.757902
v 0.757902 0.655467 0.757902
v -0.757902 1.795785 0.757902
v -0.757902 1.795785 -0.757902
v 0.757902 1.795785 -0.757902
v 0.757902 1.795785 0.757902
v -0.676870 1.894442 0.676870
v -0.676870 1.894442 -0.676870
v 0.676870 1.894442 -0.676870
v 0.676870 1.894442 0.676870
v -1.036695 2.028744 0.911038
v -1.036695 2.028744 -0.911038
v 0.836659 2.028744 -0.911038
v 0.836659 2.028744 0.911038
v -1.036695 2.775557 0.911038
v -1.036695 2.775557 -0.911038
v 0.836659 2.775557 -0.911038
v 0.836659 2.775557 0.911038
v -0.664836 2.897456 0.664836
v -0.664836 2.897456 -0.664836
v 0.664836 2.897456 -0.664836
v 0.664836 2.897456 0.664836
v -0.765894 2.995294 0.765894
v -0.765894 2.995294 -0.765894
v 0.765894 2.995294 -0.765894
v 0.765894 2.995294 0.765894
v -0.765894 4.326802 0.765894
v -0.765894 4.326802 -0.765894
v 0.765894 4.326802 -0.765894
v 0.765894 4.326802 0.765894
v -0.684699 4.434215 0.684699
v -0.684699 4.434215 -0.684699
v 0.684699 4.434215 -0.684699
v 0.684699 4.434215 0.684699
v -0.684699 5.549347 0.684699
v -0.684699 5.549347 -0.684699
v 0.684699 5.549347 -0.684699
v 0.684699 5.549347 0.684699
v -0.729280 5.648598 0.729280
v -0.729280 5.648598 -0.729280
v 0.729280 5.648598 -0.729280
v 0.729280 5.648598 0.729280
v -0.729280 6.914967 0.729280
v -0.729280 6.914967 -0.729280
v 0.729280 6.914967 -0.729280
v 0.729280 6.914967 0.729280
v -0.696360 7.025592 0.696360
v -0.696360 7.025592 -0.696360
v 0.696360 7.025592 -0.696360
v 0.696360 7.025592 0.696360
v -0.696360 8.068020 0.696360
v -0.696360 8.068020 -0.696360
v 0.696360 8.068020 -0.696360
v 0.696360 8.068020 0.696360
v -0.655642 8.152198 0.655642
v -0.655642 8.152198 -0.655642
v 0.655642 8.152198 -0.655642
v 0.655642 8.152198 0.655642
v -0.713239 8.225603 0.713239
v -0.713239 8.225603 -0.713239
v 0.713239 8.225603 -0.713239
v 0.713239 8.225603 0.713239
v -0.713239 9.496475 0.713239
v -0.713239 9.496475 -0.713239
v 0.713239 9.496475 -0.713239
v 0.713239 9.496475 0.713239
v -0.637462 9.615644 0.637462
v -0.637462 9.615644 -0.637462
v 0.637462 9.615644 -0.637462
v 0.637462 9.615644 0.637462
v -0.637462 10.842913 0.637462
v -0.637462 10.842913 -0.637462
v 0.637462 10.842913 -0.637462
v 0.637462 10.842913 0.637462
v -0.692787 10.947043 0.692787
v -0.692787 10.947043 -0.692787
v 0.692787 10.947043 -0.692787
v 0.692787 10.947043 0.692787
v -0.692787 12.324963 0.692787
v -0.692787 12.324963 -0.692787
v 0.692787 12.324963 -0.692787
v 0.692787 12.324963 0.692787
v -0.615205 12.477803 0.615205
v -0.615205 12.477803 -0.615205
v 0.615205 12.477803 -0.615205
v 0.615205 12.477803 0.615205
v -0.913878 12.561289 0.913878
v -0.913878 12.561289 -0.913878
v 0.913878 12.561289 -0.913878
v 0.913878 12.561289 0.913878
v -0.913878 13.294351 0.913878
v -0.913878 13.294351 -0.913878
v 0.913878 13.294351 -0.913878
v 0.913878 13.294351 0.913878
v -0.728211 13.413651 0.728211
v -0.728211 13.413651 -0.728211
v 0.728211 13.413651 -0.728211
v 0.728211 13.413651 0.728211
v -0.640255 2.123705 -0.603025
v -0.640255 2.669506 -0.603025
v -0.640255 2.123705 -15.999997
v -0.640255 2.669506 -15.999997
v 0.546125 2.123705 -0.603025
v 0.661409 2.202630 -0.603025
v 0.661409 2.590580 -0.603025
v 0.546125 2.669506 -0.603025
v 0.661409 2.202630 -15.954119
v 0.546125 2.123705 -15.999997
v 0.661409 2.590580 -15.954119
v 0.546125 2.669506 -15.999997
v 0.417203 -0.333908 -0.261509
v 0.417203 -0.333908 -16.063967
v 0.417203 2.352460 -0.261509
v 0.417203 2.352460 -16.063967
vt 0.599992 2.087408
vt 0.430571 2.087408
vt 0.430571 0.419708
vt 0.599992 0.419708
vt 2.707119 1.421800
vt 2.707119 1.483178
vt 0.514900 1.483178
vt 0.514900 1.421800
vt 0.599992 0.419708
vt 0.599992 2.087408
vt 0.616455 2.082438
vt 0.616455 0.419708
vt 0.616455 0.419708
vt 0.616455 2.082438
vt 0.430571 2.087408
vt 0.430571 0.419708
vt 0.410448 -0.677627
vt 0.410448 -0.508406
vt 0.633557 -0.508406
vt 0.633557 -0.677627
vt 0.540339 -0.677627
vt 0.540339 -0.508406
vt 0.317230 -0.508406
vt 0.317230 -0.677627
vt 0.633557 -0.677627
vt 0.633557 -0.508406
vt 0.410448 -0.508406
vt 0.410448 -0.677627
vt 0.419901 -0.493801
vt 0.624105 -0.493801
vt 0.624105 0.276951
vt 0.624105 0.431834
vt 0.630235 0.436483
vt 0.630235 0.272302
vt 0.530887 -0.493801
vt 0.326683 -0.493801
vt 0.624105 -0.493801
vt 0.419901 -0.493801
vt 0.419901 0.276951
vt 0.413770 0.272302
vt 0.419901 0.431834
vt 0.413770 0.436483
vt 0.413770 -0.308904
vt 0.630235 -0.308904
vt 0.618663 -0.293296
vt 0.425342 -0.293296
vt 0.413770 -0.489315
vt 0.630235 -0.489315
vt 0.630235 -0.489315
vt 0.413770 -0.489315
vt 0.413770 -0.308904
vt 0.630235 -0.308904
vt 0.320552 -0.489315
vt 0.537017 -0.489315
vt 0.537017 -0.308904
vt 0.320552 -0.308904
vt 0.332124 -0.293296
vt 0.525445 -0.293296
vt 0.558886 -0.272048
vt 0.298684 -0.272048
vt 0.425342 -0.293296
vt 0.618663 -0.293296
vt 0.373957 -0.272048
vt 0.641482 -0.272048
vt 0.641482 -0.153894
vt 0.373957 -0.153894
vt 0.425342 0.281078
vt 0.618663 0.281078
vt 0.641482 0.255715
vt 0.373957 0.255715
vt 0.618663 0.427707
vt 0.425342 0.427707
vt 0.373957 0.453070
vt 0.641482 0.453070
vt 0.641482 0.453070
vt 0.373957 0.453070
vt 0.427060 0.426403
vt 0.616945 0.426403
vt 0.641482 -0.272048
vt 0.373957 -0.272048
vt 0.373957 -0.153894
vt 0.641482 -0.153894
vt 0.558886 -0.153894
vt 0.298684 -0.153894
vt 0.333843 -0.134608
vt 0.523727 -0.134608
vt 0.538159 -0.119129
vt 0.319411 -0.119129
vt 0.373957 0.255715
vt 0.641482 0.255715
vt 0.616945 0.282382
vt 0.427060 0.282382
vt 0.412629 -0.119129
vt 0.631377 -0.119129
vt 0.631377 0.091530
vt 0.412629 0.091530
vt 0.427060 -0.134608
vt 0.616945 -0.134608
vt 0.616945 -0.134608
vt 0.427060 -0.134608
vt 0.412629 -0.119129
vt 0.631377 -0.119129
vt 0.319411 0.091530
vt 0.538159 0.091530
vt 0.526563 0.108524
vt 0.331006 0.108524
vt 0.412629 0.091530
vt 0.631377 0.091530
vt 0.526563 0.284950
vt 0.331006 0.284950
vt 0.619781 0.108524
vt 0.424224 0.108524
vt 0.424224 0.108524
vt 0.619781 0.108524
vt 0.424224 0.284950
vt 0.619781 0.284950
vt 0.626148 0.300653
vt 0.417858 0.300653
vt 0.424224 0.284950
vt 0.619781 0.284950
vt 0.324640 0.300653
vt 0.532930 0.300653
vt 0.532930 0.501006
vt 0.324640 0.501006
vt 0.417858 0.300653
vt 0.626148 0.300653
vt 0.626148 0.501006
vt 0.417858 0.501006
vt 0.417858 0.501006
vt 0.626148 0.501006
vt 0.422559 0.518508
vt 0.621447 0.518508
vt 0.621447 0.683432
vt 0.422559 0.683432
vt 0.422559 0.518508
vt 0.621447 0.518508
vt 0.528229 0.518508
vt 0.329341 0.518508
vt 0.329341 0.683432
vt 0.528229 0.683432
vt 0.522414 0.696749
vt 0.335155 0.696749
vt 0.422559 0.683432
vt 0.621447 0.683432
vt 0.428373 0.696749
vt 0.615632 0.696749
vt 0.623857 0.708363
vt 0.420148 0.708363
vt 0.428373 0.696749
vt 0.615632 0.696749
vt 0.623857 0.708363
vt 0.420148 0.708363
vt 0.420148 0.909429
vt 0.623857 0.909429
vt 0.530639 0.708363
vt 0.326930 0.708363
vt 0.326930 0.909429
vt 0.530639 0.909429
vt 0.519818 0.928282
vt 0.337752 0.928282
vt 0.623857 0.909429
vt 0.420148 0.909429
vt 0.430970 0.928282
vt 0.613036 0.928282
vt 0.613036 1.122450
vt 0.430970 1.122450
vt 0.430970 0.928282
vt 0.613036 0.928282
vt 0.337752 1.122450
vt 0.519818 1.122450
vt 0.527719 1.138924
vt 0.329851 1.138924
vt 0.430970 1.122450
vt 0.613036 1.122450
vt 0.527719 1.356926
vt 0.329851 1.356926
vt 0.620936 1.138924
vt 0.423069 1.138924
vt 0.423069 1.138924
vt 0.620936 1.138924
vt 0.423069 1.356926
vt 0.620936 1.356926
vt 0.609857 1.381107
vt 0.434148 1.381107
vt 0.423069 1.356926
vt 0.620936 1.356926
vt 0.434148 0.287758
vt 0.609857 0.287758
vt 0.652509 0.255407
vt 0.391496 0.255407
vt 0.434148 1.381107
vt 0.609857 1.381107
vt 0.516639 1.381107
vt 0.340930 1.381107
vt 0.298278 1.394315
vt 0.559291 1.394315
vt 0.559291 1.510294
vt 0.298278 1.510294
vt 0.609857 0.421027
vt 0.434148 0.421027
vt 0.391496 0.453378
vt 0.652509 0.453378
vt 0.391496 1.394315
vt 0.652509 1.394315
vt 0.652509 1.510294
vt 0.391496 1.510294
vt 0.652509 1.394315
vt 0.391496 1.394315
vt 0.391496 1.510294
vt 0.652509 1.510294
vt 0.625995 0.433268
vt 0.418010 0.433268
vt 0.418010 0.275518
vt 0.625995 0.275518
vt 0.391496 0.255407
vt 0.652509 0.255407
vt 0.652509 0.453378
vt 0.391496 0.453378
vt 0.599992 2.087407
vt 0.430571 2.087407
vt 0.430571 0.419708
vt 0.599992 0.419708
vt 2.707119 -0.244537
vt 2.707119 -0.183159
vt 0.514900 -0.183159
vt 0.514900 -0.244537
vt 0.599992 0.419708
vt 0.599992 2.087407
vt 0.616455 2.082438
vt 0.616455 0.419708
vt 0.616455 0.419708
vt 0.616455 2.082438
vt 0.430571 2.087407
vt 0.430571 0.419708
vt -0.163519 0.287082
vt 1.390988 0.287082
vt 1.390988 0.802202
vt -0.163519 0.802202
vn 0.0000 1.0000 0.0000
vn 1.0000 0.0000 0.0000
vn 0.5649 -0.8252 0.0000
vn 0.5649 0.8252 0.0000
vn 0.0000 -1.0000 0.0000
vn 0.0000 0.0000 -1.0000
vn 0.0000 0.0000 1.0000
vn 0.0000 0.5827 -0.8127
vn 0.5512 -0.8344 0.0000
vn 0.8127 0.5827 0.0000
vn 0.0000 0.5827 0.8127
vn 0.0000 -0.8344 0.5512
vn 0.0000 -0.8344 -0.5512
vn 0.0000 0.6347 0.7728
vn 0.6434 -0.7655 0.0000
vn 0.0000 0.6347 -0.7728
vn 0.7728 0.6347 0.0000
vn 0.0000 -0.8675 0.4975
vn 0.0000 -0.8675 -0.4975
vn 0.0000 0.8962 -0.4437
vn 0.6956 -0.7185 0.0000
vn 0.5786 0.8156 0.0000
vn 0.0000 0.8962 0.4437
vn 0.0000 -0.7185 0.6956
vn 0.0000 -0.7185 -0.6956
vn 0.7977 0.6030 0.0000
vn 0.0000 0.6030 0.7977
vn 0.0000 0.6030 -0.7977
vn 0.0000 -0.4097 0.9122
vn 0.0000 -0.4097 -0.9122
vn 0.9122 -0.4097 0.0000
vn 0.0000 0.2852 0.9585
vn 0.0000 0.2852 -0.9585
vn 0.9585 0.2852 0.0000
vn 0.9002 0.4354 0.0000
vn 0.0000 -0.6173 0.7867
vn 0.0000 0.4354 0.9002
vn 0.0000 0.4354 -0.9002
vn 0.0000 -0.6173 -0.7867
vn 0.7867 -0.6173 0.0000
vn 0.8438 0.5366 0.0000
vn 0.0000 0.5366 0.8438
vn 0.0000 0.5366 -0.8438
vn 0.8831 -0.4692 0.0000
vn 0.0000 -0.4692 0.8831
vn 0.0000 -0.4692 -0.8831
vn 0.0000 0.4526 0.8917
vn 0.0000 -0.9631 0.2692
vn 0.0000 0.4526 -0.8917
vn 0.8917 0.4526 0.0000
vn 0.0000 -0.9631 -0.2692
vn 0.2692 -0.9631 0.0000
vn 0.0000 0.8413 0.5406
vn 0.0000 0.8413 -0.5406
vn 0.5406 0.8413 0.0000
s off
f 12/1/1 4/2/1 2/3/1 8/4/1
f 9/5/2 11/6/2 7/7/2 6/8/2
f 5/9/3 10/10/3 9/11/3 6/12/3
f 12/1/4 8/4/4 7/13/4 11/14/4
f 3/15/5 10/10/5 5/9/5 1/16/5
f 15/17/6 16/18/6 20/19/6 19/20/6
f 19/21/2 20/22/2 18/23/2 17/24/2
f 17/25/7 18/26/7 14/27/7 13/28/7
f 20/19/8 16/18/8 22/29/8 23/30/8
f 24/31/9 23/32/9 27/33/9 28/34/9
f 18/23/10 20/22/10 23/35/10 24/36/10
f 14/27/11 18/26/11 24/37/11 21/38/11
f 21/39/12 24/31/12 28/34/12 25/40/12
f 23/32/13 22/41/13 26/42/13 27/33/13
f 29/43/14 32/44/14 36/45/14 33/46/14
f 25/47/7 28/48/7 32/44/7 29/43/7
f 27/49/6 26/50/6 30/51/6 31/52/6
f 28/53/2 27/54/2 31/55/2 32/56/2
f 36/57/15 35/58/15 39/59/15 40/60/15
f 31/52/16 30/51/16 34/61/16 35/62/16
f 32/56/17 31/55/17 35/58/17 36/57/17
f 37/63/7 40/64/7 44/65/7 41/66/7
f 33/67/18 36/68/18 40/69/18 37/70/18
f 35/71/19 34/72/19 38/73/19 39/74/19
f 43/75/20 42/76/20 46/77/20 47/78/20
f 39/79/6 38/80/6 42/81/6 43/82/6
f 40/60/2 39/59/2 43/83/2 44/84/2
f 48/85/21 47/86/21 51/87/21 52/88/21
f 44/84/22 43/83/22 47/86/22 48/85/22
f 41/89/23 44/90/23 48/91/23 45/92/23
f 49/93/7 52/94/7 56/95/7 53/96/7
f 45/97/24 48/98/24 52/94/24 49/93/24
f 47/99/25 46/100/25 50/101/25 51/102/25
f 56/103/26 55/104/26 59/105/26 60/106/26
f 51/102/6 50/101/6 54/107/6 55/108/6
f 52/88/2 51/87/2 55/104/2 56/103/2
f 60/106/2 59/105/2 63/109/2 64/110/2
f 53/96/27 56/95/27 60/111/27 57/112/27
f 55/108/28 54/107/28 58/113/28 59/114/28
f 61/115/29 64/116/29 68/117/29 65/118/29
f 57/112/7 60/111/7 64/116/7 61/115/7
f 59/114/6 58/113/6 62/119/6 63/120/6
f 68/121/2 67/122/2 71/123/2 72/124/2
f 63/120/30 62/119/30 66/125/30 67/126/30
f 64/110/31 63/109/31 67/122/31 68/121/31
f 65/118/7 68/117/7 72/127/7 69/128/7
f 67/126/6 66/125/6 70/129/6 71/130/6
f 73/131/7 76/132/7 80/133/7 77/134/7
f 69/128/32 72/127/32 76/132/32 73/131/32
f 71/130/33 70/129/33 74/135/33 75/136/33
f 72/124/34 71/123/34 75/137/34 76/138/34
f 80/139/35 79/140/35 83/141/35 84/142/35
f 75/136/6 74/135/6 78/143/6 79/144/6
f 76/138/2 75/137/2 79/140/2 80/139/2
f 81/145/36 84/146/36 88/147/36 85/148/36
f 77/134/37 80/133/37 84/146/37 81/145/37
f 79/144/38 78/143/38 82/149/38 83/150/38
f 87/151/6 86/152/6 90/153/6 91/154/6
f 83/150/39 82/149/39 86/152/39 87/151/39
f 84/142/40 83/141/40 87/155/40 88/156/40
f 92/157/41 91/158/41 95/159/41 96/160/41
f 88/156/2 87/155/2 91/158/2 92/157/2
f 85/148/7 88/147/7 92/161/7 89/162/7
f 93/163/7 96/164/7 100/165/7 97/166/7
f 89/162/42 92/161/42 96/164/42 93/163/42
f 91/154/43 90/153/43 94/167/43 95/168/43
f 100/169/44 99/170/44 103/171/44 104/172/44
f 95/168/6 94/167/6 98/173/6 99/174/6
f 96/160/2 95/159/2 99/170/2 100/169/2
f 104/172/2 103/171/2 107/175/2 108/176/2
f 97/166/45 100/165/45 104/177/45 101/178/45
f 99/174/46 98/173/46 102/179/46 103/180/46
f 105/181/47 108/182/47 112/183/47 109/184/47
f 101/178/7 104/177/7 108/182/7 105/181/7
f 103/180/6 102/179/6 106/185/6 107/186/6
f 109/187/48 112/188/48 116/189/48 113/190/48
f 107/186/49 106/185/49 110/191/49 111/192/49
f 108/176/50 107/175/50 111/193/50 112/194/50
f 116/195/2 115/196/2 119/197/2 120/198/2
f 111/199/51 110/200/51 114/201/51 115/202/51
f 112/188/52 111/199/52 115/202/52 116/189/52
f 113/203/7 116/204/7 120/205/7 117/206/7
f 115/207/6 114/208/6 118/209/6 119/210/6
f 123/211/1 122/212/1 121/213/1 124/214/1
f 117/215/53 120/216/53 124/214/53 121/213/53
f 119/217/54 118/218/54 122/212/54 123/211/54
f 120/216/55 119/217/55 123/211/55 124/214/55
f 136/219/1 128/220/1 126/221/1 132/222/1
f 133/223/2 135/224/2 131/225/2 130/226/2
f 129/227/3 134/228/3 133/229/3 130/230/3
f 136/219/4 132/222/4 131/231/4 135/232/4
f 127/233/5 134/228/5 129/227/5 125/234/5
f 137/235/2 138/236/2 140/237/2 139/238/2
