# Blender v2.82 (sub 7) OBJ File: 'city walls.blend'
# www.blender.org
o DirtCircle
v -13.102359 2.589418 13.286819
v 13.471278 2.693187 13.286819
v -13.102359 2.461416 -13.286819
v 13.471278 2.453570 -13.286819
v -15.162331 2.455435 -10.428608
v -16.707310 2.679293 -7.209902
v -17.634298 2.457954 -3.682200
v -17.943293 2.580388 0.000000
v -17.634298 2.648412 3.682200
v -16.707310 2.539877 7.209902
v -15.162331 2.427021 10.428608
v -10.244148 2.545153 15.346790
v -7.025442 2.560288 16.891769
v -3.497740 2.587031 17.818758
v 0.184460 2.500214 18.127752
v 3.866660 2.449862 17.818758
v 7.394362 2.459488 16.891769
v 10.613068 2.625145 15.346790
v 15.531250 2.638599 10.428608
v 17.076229 2.654303 7.209902
v 18.003218 2.632815 3.682200
v 18.312212 2.421583 0.000000
v 18.003218 2.612223 -3.682200
v 17.076229 2.505019 -7.209902
v 15.531250 2.710117 -10.428608
v 10.613068 2.586310 -15.346790
v 7.394362 2.573553 -16.891769
v 3.866660 2.680591 -17.818758
v 0.184460 2.605994 -18.127752
v -3.497740 2.499287 -17.818758
v -7.025442 2.568338 -16.891769
v -10.244148 2.476430 -15.346790
v -11.503198 1.360463 11.687657
v -7.729266 0.928512 12.716035
v -3.812637 0.469424 13.369968
v 0.184460 0.478470 13.595815
v 4.181557 0.491564 13.369968
v 8.098185 0.730917 12.716035
v 11.872117 1.407310 11.687657
v -12.531575 0.813164 7.913725
v -8.330091 0.232867 8.514551
v -4.085690 -0.251532 8.917962
v 0.184460 -0.480081 9.063875
v 4.454610 -0.132080 8.917962
v 8.699011 0.216232 8.514550
v 12.900496 0.889356 7.913725
v -13.185509 0.430314 3.997097
v -8.733502 -0.152692 4.270150
v -4.276131 -0.586529 4.460590
v 0.184460 -0.630063 4.531938
v 4.645050 -0.523247 4.460590
v 9.102422 -0.148019 4.270150
v 13.554427 0.395615 3.997097
v -13.411355 0.334529 -0.000000
v -8.879416 -0.482564 0.000000
v -4.347478 -0.607919 -0.000000
v 0.184460 -0.870124 -0.000000
v 4.716398 -0.659472 -0.000000
v 9.248335 -0.358892 0.000000
v 13.780274 0.337528 0.000000
v -13.185510 0.427205 -3.997097
v -8.733502 -0.106876 -4.270150
v -4.276131 -0.699629 -4.460590
v 0.184460 -0.839599 -4.531938
v 4.645050 -0.506908 -4.460590
v 9.102422 -0.330667 -4.270150
v 13.554428 0.485168 -3.997096
v -12.531574 0.721968 -7.913725
v -8.330091 0.161463 -8.514550
v -4.085690 -0.355880 -8.917962
v 0.184460 -0.447688 -9.063875
v 4.454610 -0.378646 -8.917962
v 8.699009 0.149614 -8.514549
v 12.900494 0.869240 -7.913725
v -11.503198 1.535387 -11.687657
v -7.729265 0.704551 -12.716036
v -3.812637 0.440510 -13.369968
v 0.184460 0.550691 -13.595815
v 4.181556 0.595866 -13.369969
v 8.098186 0.878709 -12.716034
v 11.872117 1.357635 -11.687657
vt -1.356447 -1.356447
vt -0.757002 -1.519793
vt -0.852437 -0.852437
vt -1.519793 -0.757002
vt -0.134892 -1.623662
vt -0.178263 -0.916513
vt 0.500000 -1.659535
vt 0.500000 -0.939691
vt 1.134892 -1.623662
vt 1.178263 -0.916514
vt 1.757002 -1.519793
vt 1.852436 -0.852437
vt 2.356448 -1.356447
vt 2.519793 -0.757002
vt -0.916513 -0.178263
vt -1.623662 -0.134892
vt -0.208512 -0.208513
vt 0.500000 -0.219845
vt 1.208513 -0.208512
vt 1.916513 -0.178263
vt 2.623662 -0.134892
vt -0.939691 0.500000
vt -1.659535 0.500000
vt -0.219845 0.500000
vt 0.500000 0.500000
vt 1.219845 0.500000
vt 1.939691 0.500000
vt 2.659535 0.500000
vt -0.916514 1.178263
vt -1.623663 1.134892
vt -0.208512 1.208513
vt 0.500000 1.219845
vt 1.208513 1.208513
vt 1.916513 1.178263
vt 2.623662 1.134892
vt -0.852437 1.852436
vt -1.519793 1.757002
vt -0.178263 1.916513
vt 0.500000 1.939691
vt 1.178263 1.916513
vt 1.852436 1.852436
vt 2.519793 1.757002
vt -0.757002 2.519793
vt -1.356447 2.356448
vt -0.134892 2.623662
vt 0.500000 2.659535
vt 1.134892 2.623662
vt 1.757002 2.519793
vt 2.356448 2.356448
vt -1.610456 -1.610456
vt -1.156462 -1.937657
vt -1.937657 -1.156462
vt -0.645208 -2.183060
vt -0.084874 -2.330300
vt 0.500000 -2.379381
vt 1.084874 -2.330300
vt 1.645208 -2.183060
vt 2.156462 -1.937657
vt 2.610455 -1.610456
vt 2.937658 -1.156462
vt 3.183060 -0.645208
vt 3.330300 -0.084874
vt 3.379381 0.500000
vt 3.330300 1.084874
vt 3.183060 1.645208
vt 2.937658 2.156462
vt 2.610455 2.610455
vt 2.156462 2.937658
vt 1.645208 3.183060
vt 1.084874 3.330300
vt 0.500000 3.379381
vt -0.084874 3.330300
vt -0.645208 3.183060
vt -1.156462 2.937658
vt -1.937657 2.156462
vt -1.610456 2.610455
vt -2.183060 1.645208
vt -2.330300 1.084874
vt -2.379381 0.500000
vt -2.330300 -0.084874
vt -2.183060 -0.645208
vn 0.2588 0.9261 -0.2742
vn 0.1593 0.9443 -0.2879
vn 0.1376 0.9805 -0.1399
vn 0.2774 0.9483 -0.1539
vn 0.0873 0.9494 -0.3017
vn 0.0790 0.9889 -0.1259
vn -0.0002 0.9531 -0.3026
vn -0.0093 0.9927 -0.1201
vn -0.0717 0.9552 -0.2871
vn -0.0707 0.9907 -0.1164
vn -0.1665 0.9457 -0.2791
vn -0.1339 0.9824 -0.1302
vn -0.2930 0.9157 -0.2748
vn -0.2951 0.9411 -0.1651
vn 0.1178 0.9901 -0.0755
vn 0.2994 0.9501 -0.0868
vn 0.0608 0.9967 -0.0542
vn -0.0056 0.9989 -0.0469
vn -0.0636 0.9962 -0.0597
vn -0.1139 0.9907 -0.0746
vn -0.2949 0.9507 -0.0952
vn 0.1131 0.9936 -0.0005
vn 0.3035 0.9528 -0.0049
vn 0.0557 0.9984 -0.0107
vn -0.0043 0.9999 -0.0143
vn -0.0564 0.9984 -0.0102
vn -0.1095 0.9940 -0.0073
vn -0.2989 0.9543 -0.0005
vn 0.1232 0.9902 0.0652
vn 0.2942 0.9519 0.0855
vn 0.0722 0.9963 0.0471
vn -0.0087 0.9992 0.0391
vn -0.0622 0.9970 0.0446
vn -0.1238 0.9902 0.0645
vn -0.3018 0.9495 0.0860
vn 0.1512 0.9792 0.1355
vn 0.2876 0.9436 0.1636
vn 0.0707 0.9889 0.1306
vn -0.0089 0.9901 0.1397
vn -0.0711 0.9877 0.1392
vn -0.1438 0.9787 0.1463
vn -0.2985 0.9390 0.1709
vn 0.1733 0.9404 0.2925
vn 0.2630 0.9292 0.2596
vn 0.0647 0.9496 0.3066
vn -0.0144 0.9481 0.3177
vn -0.0740 0.9456 0.3169
vn -0.1577 0.9406 0.3006
vn -0.2698 0.9255 0.2658
vn 0.3270 0.8785 -0.3481
vn 0.2229 0.9023 -0.3689
vn 0.3627 0.9033 -0.2291
vn 0.1570 0.9042 -0.3972
vn 0.0816 0.9060 -0.4153
vn 0.0074 0.9108 -0.4128
vn -0.0630 0.9123 -0.4046
vn -0.1629 0.9017 -0.4005
vn -0.2750 0.8810 -0.3848
vn -0.3507 0.8693 -0.3483
vn -0.3853 0.8905 -0.2418
vn -0.4187 0.8916 -0.1723
vn -0.4333 0.8955 -0.1013
vn -0.4310 0.9023 0.0038
vn -0.4185 0.9036 0.0913
vn -0.4055 0.9001 0.1596
vn -0.3801 0.8909 0.2484
vn -0.3196 0.8998 0.2970
vn -0.2315 0.9007 0.3675
vn -0.1414 0.9044 0.4024
vn -0.0711 0.9068 0.4155
vn -0.0202 0.9081 0.4182
vn 0.0575 0.9056 0.4202
vn 0.1656 0.8975 0.4088
vn 0.2414 0.9029 0.3557
vn 0.3587 0.9049 0.2289
vn 0.2659 0.9254 0.2699
vn 0.4144 0.8931 0.1748
vn 0.4310 0.8987 0.0810
vn 0.4386 0.8986 -0.0121
vn 0.4372 0.8957 -0.0814
vn 0.4075 0.9013 -0.1469
s 1
f 33/1/1 34/2/2 41/3/3 40/4/4
f 34/2/2 35/5/5 42/6/6 41/3/3
f 35/5/5 36/7/7 43/8/8 42/6/6
f 36/7/7 37/9/9 44/10/10 43/8/8
f 37/9/9 38/11/11 45/12/12 44/10/10
f 38/11/11 39/13/13 46/14/14 45/12/12
f 40/4/4 41/3/3 48/15/15 47/16/16
f 41/3/3 42/6/6 49/17/17 48/15/15
f 42/6/6 43/8/8 50/18/18 49/17/17
f 43/8/8 44/10/10 51/19/19 50/18/18
f 44/10/10 45/12/12 52/20/20 51/19/19
f 45/12/12 46/14/14 53/21/21 52/20/20
f 47/16/16 48/15/15 55/22/22 54/23/23
f 48/15/15 49/17/17 56/24/24 55/22/22
f 49/17/17 50/18/18 57/25/25 56/24/24
f 50/18/18 51/19/19 58/26/26 57/25/25
f 51/19/19 52/20/20 59/27/27 58/26/26
f 52/20/20 53/21/21 60/28/28 59/27/27
f 54/23/23 55/22/22 62/29/29 61/30/30
f 55/22/22 56/24/24 63/31/31 62/29/29
f 56/24/24 57/25/25 64/32/32 63/31/31
f 57/25/25 58/26/26 65/33/33 64/32/32
f 58/26/26 59/27/27 66/34/34 65/33/33
f 59/27/27 60/28/28 67/35/35 66/34/34
f 61/30/30 62/29/29 69/36/36 68/37/37
f 62/29/29 63/31/31 70/38/38 69/36/36
f 63/31/31 64/32/32 71/39/39 70/38/38
f 64/32/32 65/33/33 72/40/40 71/39/39
f 65/33/33 66/34/34 73/41/41 72/40/40
f 66/34/34 67/35/35 74/42/42 73/41/41
f 68/37/37 69/36/36 76/43/43 75/44/44
f 69/36/36 70/38/38 77/45/45 76/43/43
f 70/38/38 71/39/39 78/46/46 77/45/45
f 71/39/39 72/40/40 79/47/47 78/46/46
f 72/40/40 73/41/41 80/48/48 79/47/47
f 73/41/41 74/42/42 81/49/49 80/48/48
f 1/50/50 12/51/51 33/1/1 11/52/52
f 12/51/51 13/53/53 34/2/2 33/1/1
f 13/53/53 14/54/54 35/5/5 34/2/2
f 14/54/54 15/55/55 36/7/7 35/5/5
f 15/55/55 16/56/56 37/9/9 36/7/7
f 16/56/56 17/57/57 38/11/11 37/9/9
f 17/57/57 18/58/58 39/13/13 38/11/11
f 18/58/58 2/59/59 19/60/60 39/13/13
f 39/13/13 19/60/60 20/61/61 46/14/14
f 46/14/14 20/61/61 21/62/62 53/21/21
f 53/21/21 21/62/62 22/63/63 60/28/28
f 60/28/28 22/63/63 23/64/64 67/35/35
f 67/35/35 23/64/64 24/65/65 74/42/42
f 74/42/42 24/65/65 25/66/66 81/49/49
f 81/49/49 25/66/66 4/67/67 26/68/68
f 80/48/48 81/49/49 26/68/68 27/69/69
f 79/47/47 80/48/48 27/69/69 28/70/70
f 78/46/46 79/47/47 28/70/70 29/71/71
f 77/45/45 78/46/46 29/71/71 30/72/72
f 76/43/43 77/45/45 30/72/72 31/73/73
f 75/44/44 76/43/43 31/73/73 32/74/74
f 5/75/75 75/44/44 32/74/74 3/76/76
f 6/77/77 68/37/37 75/44/44 5/75/75
f 7/78/78 61/30/30 68/37/37 6/77/77
f 8/79/79 54/23/23 61/30/30 7/78/78
f 9/80/80 47/16/16 54/23/23 8/79/79
f 10/81/81 40/4/4 47/16/16 9/80/80
f 11/52/52 33/1/1 40/4/4 10/81/81
