# Blender v2.82 (sub 7) OBJ File: 'city walls.blend'
# www.blender.org
o Main
v -1.916330 1.426476 0.998247
v -1.916330 1.426476 -0.998247
v 1.916330 1.426476 0.998247
v 1.916330 1.426476 -0.998247
v -1.916330 1.584743 0.998247
v -1.916330 1.584743 -0.998247
v 1.916330 1.584743 -0.998247
v 1.916330 1.584743 0.998247
v -1.992183 3.036594 0.854114
v -1.992183 3.036594 -0.854114
v 1.992183 3.036594 -0.854114
v 1.992183 3.036594 0.854114
v -1.992183 3.159067 0.854114
v -1.992183 3.159067 -0.854114
v 1.992183 3.159067 -0.854114
v 1.992183 3.159067 0.854114
v -2.059739 -0.115332 0.789811
v -2.238105 -0.115332 0.677106
v -2.185863 -0.115332 0.756800
v -2.238105 0.131303 0.923740
v -2.059739 0.094857 1.000000
v -2.185863 0.105532 0.977664
v -2.238105 0.131303 -0.923740
v -2.059739 0.094857 -1.000000
v -2.185863 0.105532 -0.977664
v -2.238105 -0.115332 -0.677106
v -2.059739 -0.115332 -0.789811
v -2.185863 -0.115332 -0.756800
v 2.238105 0.131303 0.923740
v 2.059739 0.094857 1.000000
v 2.185863 0.105532 0.977664
v 2.238105 -0.115332 0.677106
v 2.059739 -0.115332 0.789811
v 2.185863 -0.115332 0.756800
v 2.059739 -0.115332 -0.789811
v 2.238105 -0.115332 -0.677106
v 2.185863 -0.115332 -0.756800
v 2.238105 0.131303 -0.923740
v 2.059739 0.094857 -1.000000
v 2.185863 0.105532 -0.977664
v -2.238105 1.426476 1.061871
v -2.059739 1.426476 1.142017
v -2.111981 1.426476 1.085665
v -2.185863 1.426476 1.118543
v -2.059739 1.426476 -1.142017
v -2.238105 1.426476 -1.061871
v -2.111981 1.426476 -1.085665
v -2.185863 1.426476 -1.118543
v 2.238105 1.426476 -1.061871
v 2.059739 1.426476 -1.142017
v 2.111981 1.426476 -1.085665
v 2.185863 1.426476 -1.118543
v 2.059739 1.426476 1.142017
v 2.238105 1.426476 1.061871
v 2.111981 1.426476 1.085665
v 2.185863 1.426476 1.118543
v -2.033640 1.584743 1.152269
v -2.212006 1.584743 1.071821
v -2.095881 1.584743 1.091777
v -2.159764 1.584743 1.128706
v -2.212006 1.584743 -1.071821
v -2.033640 1.584743 -1.152269
v -2.095881 1.584743 -1.091777
v -2.159764 1.584743 -1.128706
v 2.033640 1.584743 -1.152269
v 2.212006 1.584743 -1.071821
v 2.095881 1.584743 -1.091777
v 2.159764 1.584743 -1.128706
v 2.212006 1.584743 1.071821
v 2.033640 1.584743 1.152269
v 2.095881 1.584743 1.091777
v 2.159764 1.584743 1.128706
v -2.212006 3.036594 0.871885
v -2.033640 3.036594 0.952332
v -2.085882 3.036594 0.895980
v -2.159764 3.036594 0.928770
v -2.033640 3.036594 -0.952332
v -2.212006 3.036594 -0.871885
v -2.085882 3.036594 -0.895980
v -2.159764 3.036594 -0.928770
v 2.212006 3.036594 -0.871885
v 2.033640 3.036594 -0.952332
v 2.085882 3.036594 -0.895980
v 2.159764 3.036594 -0.928770
v 2.033640 3.036594 0.952332
v 2.212006 3.036594 0.871885
v 2.085882 3.036594 0.895980
v 2.159764 3.036594 0.928770
v -1.991449 3.159067 0.930271
v -2.169815 3.159067 0.838599
v -2.041115 3.159067 0.875093
v -2.117573 3.159067 0.903421
v -2.169815 3.159067 -0.838599
v -1.991449 3.159067 -0.930271
v -2.041115 3.159067 -0.875093
v -2.117573 3.159067 -0.903421
v 1.991449 3.159067 -0.930271
v 2.169815 3.159067 -0.838599
v 2.041115 3.159067 -0.875093
v 2.117573 3.159067 -0.903421
v 2.169815 3.159067 0.838599
v 1.991449 3.159067 0.930271
v 2.041115 3.159067 0.875093
v 2.117573 3.159067 0.903421
v -1.991449 7.558871 0.930271
v -2.169815 7.558871 0.838120
v -2.117573 7.558871 0.903281
v -2.169815 7.558871 -0.838120
v -1.991449 7.558871 -0.930271
v -2.117573 7.558871 -0.903281
v 1.991449 7.558871 -0.930271
v 2.169815 7.558871 -0.838120
v 2.117573 7.558871 -0.903281
v 2.169815 7.558871 0.838120
v 1.991449 7.558871 0.930271
v 2.117573 7.558871 0.903281
v -1.991449 7.910790 0.755147
v -2.169815 7.910790 0.661650
v -2.117573 7.910790 0.727762
v -2.169815 7.910790 -0.661650
v -1.991449 7.910790 -0.755147
v -2.117573 7.910790 -0.727762
v 1.991449 7.910790 -0.755147
v 2.169815 7.910790 -0.661650
v 2.117573 7.910790 -0.727762
v 2.169815 7.910790 0.661650
v 1.991449 7.910790 0.755147
v 2.117573 7.910790 0.727762
v -2.169815 7.988639 0.410432
v -1.991449 8.068334 0.259935
v -2.117573 8.044991 0.304015
v -2.169815 7.988639 -0.410432
v -1.991449 8.068334 -0.259935
v -2.117573 8.044991 -0.304015
v 2.169815 7.988639 -0.410432
v 1.991449 8.068334 -0.259935
v 2.117573 8.044991 -0.304015
v 2.169815 7.988639 0.410432
v 1.991449 8.068334 0.259935
v 2.117573 8.044991 0.304015
vt 1.160399 0.822457
vt -0.160399 0.822457
vt -0.160399 0.901403
vt 1.160399 0.901403
vt -0.114419 0.150874
vt -0.114419 0.900744
vt -0.177149 0.933578
vt -0.217587 0.924641
vt -0.217587 0.126977
vt -0.177149 0.118041
vt 0.985882 -0.849309
vt 1.162864 -0.756675
vt 1.261984 -0.270216
vt -0.261984 -0.270216
vt -0.162864 -0.756675
vt 0.014118 -0.849309
vt 1.160399 -0.770364
vt 1.160399 -0.270216
vt -0.160399 -0.270216
vt -0.160399 -0.770364
vt -0.160399 -0.770364
vt -0.160399 -0.270216
vt 1.160399 -0.270216
vt 1.160399 -0.770364
vt -0.217587 0.780126
vt -0.200837 0.810059
vt 1.200837 0.810059
vt 1.217587 0.780126
vt 1.217587 0.271493
vt 1.200837 0.241560
vt 1.160399 0.229161
vt -0.160399 0.229161
vt -0.200837 0.241560
vt -0.217587 0.271493
vt 0.014118 -0.849309
vt -0.162864 -0.756675
vt -0.261984 -0.270216
vt 1.261984 -0.270216
vt 1.162864 -0.756675
vt 0.985882 -0.849309
vt 1.114419 0.150874
vt -0.160399 0.096875
vt 1.160399 0.096875
vt 1.177149 0.118041
vt 1.114419 0.900744
vt 1.217587 0.126977
vt 1.217587 0.924641
vt 1.177149 0.933578
vt -0.114419 0.900744
vt -0.114419 0.150874
vt -0.171987 0.115745
vt -0.209219 0.123240
vt -0.209219 0.928378
vt -0.171987 0.935874
vt 1.160399 0.954744
vt -0.160399 0.954744
vt -0.138739 0.205009
vt -0.138739 0.846609
vt -0.168781 0.862333
vt -0.209219 0.853284
vt -0.209219 0.198335
vt -0.168781 0.189285
vt 1.152031 -0.210772
vt -0.152031 -0.210772
vt -0.152031 0.334534
vt 1.152031 0.334534
vt -0.152031 -0.210772
vt 1.152031 -0.210772
vt 1.152031 0.334534
vt -0.152031 0.334534
vt 1.269125 -0.210772
vt -0.269125 -0.210772
vt -0.125653 0.334534
vt 1.125653 0.334534
vt -0.269125 -0.210772
vt 1.269125 -0.210772
vt 1.125653 0.334534
vt -0.125653 0.334534
vt 1.114419 0.150874
vt 1.171987 0.115745
vt 1.152031 0.093025
vt -0.152031 0.093025
vt 1.114419 0.900744
vt -0.152031 0.958594
vt 1.152031 0.958594
vt 1.171987 0.935874
vt 1.209219 0.928378
vt 1.209219 0.123240
vt 1.138739 0.205009
vt -0.152031 0.168119
vt 1.152031 0.168119
vt 1.168781 0.189285
vt 1.138739 0.846609
vt 1.209219 0.198335
vt 1.209219 0.853284
vt 1.168781 0.862333
vt 1.101767 0.380534
vt -0.101767 0.380534
vt -0.101423 2.033072
vt 1.101424 2.033072
vt 1.152031 0.883499
vt -0.152031 0.883499
vt 1.138739 0.846609
vt -0.138739 0.846609
vt -0.154428 0.854489
vt -0.138503 0.875213
vt 1.138503 0.875213
vt 1.154428 0.854489
vt -0.101767 0.380534
vt 1.101767 0.380534
vt 1.101424 2.033072
vt -0.101423 2.033072
vt 1.138503 0.380534
vt -0.138503 0.380534
vt -0.138503 2.033072
vt 1.138503 2.033072
vt 0.025208 2.165250
vt 0.974792 2.165250
vt -0.138503 0.380534
vt 1.138503 0.380534
vt 1.138503 2.033072
vt -0.138503 2.033072
vt 0.205479 2.194489
vt 0.794521 2.194489
vt 1.138739 0.205009
vt 1.195691 0.840781
vt 1.195691 0.210837
vt 1.154428 0.197130
vt -0.138739 0.205009
vt -0.154428 0.197130
vt -0.195692 0.210837
vt -0.195692 0.840781
vt 1.138503 0.176405
vt -0.138503 0.176405
vt 1.138503 0.809437
vt -0.138503 0.809437
vt -0.138503 0.623439
vt 1.138503 0.623439
vt 1.138503 2.165250
vt -0.138503 2.165250
vt -0.138503 2.165250
vt 1.138503 2.165250
vt 0.974792 2.165250
vt 0.025208 2.165250
vt 0.794521 2.194489
vt 0.205479 2.194489
vt -0.138503 0.428179
vt 1.138503 0.428179
vt -0.138503 0.242181
vt 1.138503 0.242181
vt -0.200837 0.105692
vt -0.200837 0.945927
vt 1.200837 0.945927
vt 1.200837 0.105692
vt -0.192469 0.101874
vt -0.192469 0.949744
vt 1.192469 0.949744
vt 1.192469 0.101874
vt -0.192469 0.176969
vt -0.192469 0.874649
vt 1.192469 0.874649
vt 1.192469 0.176969
vt -0.178942 0.186490
vt -0.178942 0.865128
vt 1.178941 0.865128
vt 1.178941 0.186490
vt 1.043070 -0.849309
vt 1.201559 -0.766354
vt 1.200837 0.893013
vt 1.201559 -0.766354
vt 1.043070 -0.849309
vt -0.200837 0.893013
vt -0.043070 -0.849309
vt -0.201559 -0.766354
vt -0.200837 0.158605
vt -0.160399 0.150216
vt -0.201559 -0.766354
vt -0.043070 -0.849309
vt 1.200837 0.158605
vt 1.160399 0.150216
vt -0.200837 -0.270216
vt -0.200837 -0.766354
vt -0.302652 -0.270216
vt -0.200837 -0.766354
vt -0.200837 -0.270216
vt 1.302652 -0.270216
vt -0.302652 -0.270216
vt 1.200837 -0.766354
vt 1.200837 -0.270216
vt 1.302652 -0.270216
vt 1.200837 -0.270216
vt 1.200837 -0.766354
vt -0.192469 0.334534
vt -0.192469 -0.210772
vt -0.309945 -0.210772
vt -0.166473 0.334534
vt -0.192469 -0.210772
vt -0.192469 0.334534
vt 1.166473 0.334534
vt 1.309945 -0.210772
vt -0.166473 0.334534
vt -0.309945 -0.210772
vt 1.192469 -0.210772
vt 1.192469 0.334534
vt 1.309945 -0.210772
vt 1.166473 0.334534
vt 1.192469 0.334534
vt 1.192469 -0.210772
vt 1.148182 2.033072
vt 1.148283 0.380534
vt -0.178942 0.380534
vt -0.178942 2.033072
vt 1.148283 0.380534
vt 1.148182 2.033072
vt 1.178941 2.033072
vt 1.178941 0.380534
vt 1.178941 0.380534
vt 1.178941 2.033072
vt -0.148182 2.033072
vt -0.148283 0.380534
vt -0.178942 2.033072
vt -0.178942 0.380534
vt -0.148283 0.380534
vt -0.148182 2.033072
vt 1.178941 2.165250
vt 1.022232 2.165250
vt 1.178941 2.165250
vt -0.022232 2.165250
vt -0.178942 2.165250
vt -0.022232 2.165250
vt -0.178942 2.165250
vt 1.022232 2.165250
vt -0.178942 0.639995
vt -0.178942 0.411623
vt 0.281843 2.215655
vt 0.718157 2.215655
vt 1.178941 0.411623
vt 1.178941 0.639995
vt 0.718157 2.215655
vt 0.281843 2.215655
vt 1.195691 0.277298
vt 1.195691 0.371654
vt 1.178941 0.252467
vt -0.195692 0.371654
vt -0.195692 0.277298
vt -0.178942 0.252467
vt -0.195692 0.774321
vt -0.195692 0.679965
vt -0.178942 0.799152
vt 1.195691 0.679965
vt 1.195691 0.774321
vt 1.178941 0.799152
vn 0.0000 -0.7071 -0.7071
vn 0.0000 1.0000 0.0000
vn 1.0000 0.0000 0.0000
vn 0.0000 -0.1060 0.9944
vn 0.0000 -0.1060 -0.9944
vn 0.0000 -1.0000 -0.0000
vn -1.0000 0.0000 0.0000
vn 0.0000 0.1364 -0.9907
vn 0.0000 0.1364 0.9907
vn 0.0000 0.0000 -1.0000
vn 0.0000 0.0000 1.0000
vn 0.0000 0.9529 -0.3032
vn 0.0000 0.4455 0.8953
vn 0.0000 0.4455 -0.8953
vn 0.0000 0.9529 0.3032
vn 0.7333 -0.4807 -0.4807
vn 0.1820 -0.6953 -0.6953
vn -0.7333 -0.4807 -0.4807
vn -0.1820 -0.6953 -0.6953
vn -0.7333 -0.4807 0.4807
vn -0.1820 -0.6953 0.6953
vn 0.7333 -0.4807 0.4807
vn 0.1820 -0.6953 0.6953
vn -0.1820 -0.1043 0.9778
vn -0.7333 -0.0721 0.6760
vn -0.1820 -0.1043 -0.9778
vn -0.7333 -0.0721 -0.6760
vn 0.7333 -0.0721 0.6760
vn 0.1820 -0.1043 0.9778
vn 0.7333 -0.0721 -0.6760
vn 0.1820 -0.1043 -0.9778
vn -0.1820 0.1341 0.9741
vn -0.7333 0.0927 0.6735
vn -0.1820 0.1341 -0.9741
vn -0.7333 0.0927 -0.6735
vn 0.7333 0.0927 0.6735
vn 0.1820 0.1341 0.9741
vn 0.7333 0.0927 -0.6735
vn 0.1820 0.1341 -0.9741
vn -0.7794 0.0000 -0.6265
vn -0.2087 0.0000 -0.9780
vn 0.7794 0.0000 -0.6265
vn 0.2087 0.0000 -0.9780
vn 0.2087 0.0000 0.9780
vn 0.7794 0.0000 0.6265
vn -0.2087 0.0000 0.9780
vn -0.7794 0.0000 0.6265
vn 0.1895 0.4378 -0.8789
vn 0.7470 0.2973 -0.5946
vn 0.1895 0.4378 0.8789
vn 0.7470 0.2973 0.5946
vn -0.1895 0.4378 0.8789
vn -0.7470 0.2973 0.5946
vn -0.1895 0.4378 -0.8789
vn -0.7470 0.2973 -0.5946
vn -0.1820 0.9833 0.0000
vn -0.7333 0.6799 0.0000
vn 0.1820 0.9833 0.0000
vn 0.7333 0.6799 0.0000
vn 0.3705 0.8861 0.2784
vn 0.0680 0.9509 0.3019
vn -0.3705 0.8861 0.2784
vn -0.0680 0.9509 0.3019
vn -0.3705 0.8861 -0.2784
vn -0.0680 0.9509 -0.3019
vn 0.3705 0.8861 -0.2784
vn 0.0680 0.9509 -0.3019
vn 0.0000 -0.7071 0.7071
s off
f 35/1/1 27/2/1 24/3/1 39/4/1
f 1/5/2 2/6/2 47/7/2 46/8/2 41/9/2 43/10/2
f 36/11/3 38/12/3 49/13/3 54/14/3 29/15/3 32/16/3
f 30/17/4 53/18/4 42/19/4 21/20/4
f 24/21/5 45/22/5 50/23/5 39/24/5
f 26/25/6 28/26/6 27/2/6 35/1/6 37/27/6 36/28/6 32/29/6 34/30/6 33/31/6 17/32/6 19/33/6 18/34/6
f 18/35/7 20/36/7 41/37/7 46/38/7 23/39/7 26/40/7
f 3/41/2 1/5/2 43/10/2 42/42/2 53/43/2 55/44/2
f 4/45/2 3/41/2 55/44/2 54/46/2 49/47/2 51/48/2
f 6/49/6 5/50/6 59/51/6 58/52/6 61/53/6 63/54/6
f 2/6/2 4/45/2 51/48/2 50/55/2 45/56/2 47/7/2
f 9/57/2 10/58/2 79/59/2 78/60/2 73/61/2 75/62/2
f 65/63/8 62/64/8 77/65/8 82/66/8
f 57/67/9 70/68/9 85/69/9 74/70/9
f 61/71/7 58/72/7 73/73/7 78/74/7
f 69/75/3 66/76/3 81/77/3 86/78/3
f 5/50/6 8/79/6 71/80/6 70/81/6 57/82/6 59/51/6
f 7/83/6 6/49/6 63/54/6 62/84/6 65/85/6 67/86/6
f 8/79/6 7/83/6 67/86/6 66/87/6 69/88/6 71/80/6
f 12/89/2 9/57/2 75/62/2 74/90/2 85/91/2 87/92/2
f 11/93/2 12/89/2 87/92/2 86/94/2 81/95/2 83/96/2
f 93/97/7 90/98/7 106/99/7 108/100/7
f 10/58/2 11/93/2 83/96/2 82/101/2 77/102/2 79/59/2
f 15/103/6 14/104/6 95/105/6 94/106/6 97/107/6 99/108/6
f 101/109/3 98/110/3 112/111/3 114/112/3
f 97/113/10 94/114/10 109/115/10 111/116/10
f 108/100/7 106/99/7 118/117/7 120/118/7
f 89/119/11 102/120/11 115/121/11 105/122/11
f 120/118/7 118/117/7 129/123/7 132/124/7
f 16/125/6 15/103/6 99/108/6 98/126/6 101/127/6 103/128/6
f 14/104/6 13/129/6 91/130/6 90/131/6 93/132/6 95/105/6
f 13/129/6 16/125/6 103/128/6 102/133/6 89/134/6 91/130/6
f 123/135/12 121/136/12 133/137/12 136/138/12
f 105/122/13 115/121/13 127/139/13 117/140/13
f 111/116/14 109/115/14 121/141/14 123/142/14
f 114/112/3 112/111/3 124/143/3 126/144/3
f 126/144/3 124/143/3 135/145/3 138/146/3
f 136/138/2 133/137/2 130/147/2 139/148/2
f 117/149/15 127/150/15 139/148/15 130/147/15
f 41/9/2 44/151/2 43/10/2
f 44/151/2 42/42/2 43/10/2
f 45/56/2 48/152/2 47/7/2
f 48/152/2 46/8/2 47/7/2
f 49/47/2 52/153/2 51/48/2
f 52/153/2 50/55/2 51/48/2
f 53/43/2 56/154/2 55/44/2
f 56/154/2 54/46/2 55/44/2
f 57/82/6 60/155/6 59/51/6
f 60/155/6 58/52/6 59/51/6
f 61/53/6 64/156/6 63/54/6
f 64/156/6 62/84/6 63/54/6
f 65/85/6 68/157/6 67/86/6
f 68/157/6 66/87/6 67/86/6
f 69/88/6 72/158/6 71/80/6
f 72/158/6 70/81/6 71/80/6
f 73/61/2 76/159/2 75/62/2
f 76/159/2 74/90/2 75/62/2
f 77/102/2 80/160/2 79/59/2
f 80/160/2 78/60/2 79/59/2
f 81/95/2 84/161/2 83/96/2
f 84/161/2 82/101/2 83/96/2
f 85/91/2 88/162/2 87/92/2
f 88/162/2 86/94/2 87/92/2
f 89/134/6 92/163/6 91/130/6
f 92/163/6 90/131/6 91/130/6
f 93/132/6 96/164/6 95/105/6
f 96/164/6 94/106/6 95/105/6
f 97/107/6 100/165/6 99/108/6
f 100/165/6 98/126/6 99/108/6
f 101/127/6 104/166/6 103/128/6
f 104/166/6 102/133/6 103/128/6
f 38/12/16 36/11/16 37/167/16 40/168/16
f 40/169/17 37/27/17 35/1/17 39/4/17
f 26/40/18 23/39/18 25/170/18 28/171/18
f 28/26/19 25/172/19 24/3/19 27/2/19
f 20/36/20 18/35/20 19/173/20 22/174/20
f 22/175/21 19/33/21 17/32/21 21/176/21
f 32/16/22 29/15/22 31/177/22 34/178/22
f 34/30/23 31/179/23 30/180/23 33/31/23
f 21/20/24 42/19/24 44/181/24 22/182/24
f 22/174/25 44/183/25 41/37/25 20/36/25
f 45/22/26 24/21/26 25/184/26 48/185/26
f 48/186/27 25/170/27 23/39/27 46/38/27
f 29/15/28 54/14/28 56/187/28 31/177/28
f 31/188/29 56/189/29 53/18/29 30/17/29
f 49/13/30 38/12/30 40/168/30 52/190/30
f 52/191/31 40/192/31 39/24/31 50/23/31
f 57/67/32 74/70/32 76/193/32 60/194/32
f 60/195/33 76/196/33 73/73/33 58/72/33
f 77/65/34 62/64/34 64/197/34 80/198/34
f 80/199/35 64/200/35 61/71/35 78/74/35
f 69/75/36 86/78/36 88/201/36 72/202/36
f 72/203/37 88/204/37 85/69/37 70/68/37
f 81/77/38 66/76/38 68/205/38 84/206/38
f 84/207/39 68/208/39 65/63/39 82/66/39
f 93/97/40 108/100/40 110/209/40 96/210/40
f 96/211/41 110/212/41 109/115/41 94/114/41
f 112/111/42 98/110/42 100/213/42 113/214/42
f 113/215/43 100/216/43 97/113/43 111/116/43
f 115/121/44 102/120/44 104/217/44 116/218/44
f 116/219/45 104/220/45 101/109/45 114/112/45
f 89/119/46 105/122/46 107/221/46 92/222/46
f 92/223/47 107/224/47 106/99/47 90/98/47
f 111/116/48 123/142/48 125/225/48 113/215/48
f 113/214/49 125/226/49 124/143/49 112/111/49
f 127/139/50 115/121/50 116/218/50 128/227/50
f 128/228/51 116/219/51 114/112/51 126/144/51
f 105/122/52 117/140/52 119/229/52 107/221/52
f 107/224/53 119/230/53 118/117/53 106/99/53
f 121/141/54 109/115/54 110/212/54 122/231/54
f 122/232/55 110/209/55 108/100/55 120/118/55
f 130/147/56 133/137/56 134/233/56 131/234/56
f 131/235/57 134/236/57 132/124/57 129/123/57
f 136/138/58 139/148/58 140/237/58 137/238/58
f 137/239/59 140/240/59 138/146/59 135/145/59
f 126/241/60 138/242/60 140/237/60 128/243/60
f 128/243/61 140/237/61 139/148/61 127/150/61
f 129/244/62 118/245/62 119/246/62 131/234/62
f 131/234/63 119/246/63 117/149/63 130/147/63
f 120/247/64 132/248/64 134/233/64 122/249/64
f 122/249/65 134/233/65 133/137/65 121/136/65
f 135/250/66 124/251/66 125/252/66 137/238/66
f 137/238/67 125/252/67 123/135/67 136/138/67
f 17/32/68 33/31/68 30/180/68 21/176/68
o Inner
v -1.916330 1.426476 0.998247
v -1.916330 1.426476 -0.998247
v 1.916330 1.426476 0.998247
v 1.916330 1.426476 -0.998247
v -1.916330 1.584743 0.998247
v -1.916330 1.584743 -0.998247
v 1.916330 1.584743 -0.998247
v 1.916330 1.584743 0.998247
v -1.992183 3.036594 0.854114
v -1.992183 3.036594 -0.854114
v 1.992183 3.036594 -0.854114
v 1.992183 3.036594 0.854114
v -1.992183 3.159067 0.854114
v -1.992183 3.159067 -0.854114
v 1.992183 3.159067 -0.854114
v 1.992183 3.159067 0.854114
vt 0.285943 0.281189
vt 0.714057 0.281189
vt 0.714057 0.320756
vt 0.285943 0.320756
vt 0.714057 0.281189
vt 0.285943 0.281189
vt 0.285943 0.320756
vt 0.714057 0.320756
vt 0.250438 0.281189
vt 0.749562 0.281189
vt 0.749562 0.320756
vt 0.250438 0.320756
vt 0.749562 0.281189
vt 0.250438 0.281189
vt 0.250438 0.320756
vt 0.749562 0.320756
vt 0.286471 0.683719
vt 0.713529 0.683719
vt 0.713529 0.714337
vt 0.286471 0.714337
vt 0.713529 0.683719
vt 0.286471 0.683719
vt 0.286471 0.714337
vt 0.713529 0.714337
vt 0.277470 0.683719
vt 0.722530 0.683719
vt 0.722530 0.714337
vt 0.277470 0.714337
vt 0.722530 0.683719
vt 0.277470 0.683719
vt 0.277470 0.714337
vt 0.722530 0.714337
vn 0.0000 0.0000 1.0000
vn 0.0000 0.0000 -1.0000
vn 1.0000 0.0000 0.0000
vn -1.0000 0.0000 0.0000
s off
f 141/253/69 143/254/69 148/255/69 145/256/69
f 144/257/70 142/258/70 146/259/70 147/260/70
f 143/261/71 144/262/71 147/263/71 148/264/71
f 142/265/72 141/266/72 145/267/72 146/268/72
f 152/269/71 151/270/71 155/271/71 156/272/71
f 150/273/72 149/274/72 153/275/72 154/276/72
f 149/277/69 152/278/69 156/279/69 153/280/69
f 151/281/70 150/282/70 154/283/70 155/284/70
