# Blender v2.90.1 OBJ File: 'drape.blend'
# www.blender.org
mtllib padded_fabric.mtl
o Tunnel_Drape_Plane.001
v -2.558192 0.191951 3.000000
v -2.558192 0.191951 -3.000000
v -2.168068 0.007790 3.000000
v -2.168068 0.007790 -3.000000
v -2.749454 0.551102 -3.000000
v -2.749454 0.551102 3.000000
v -2.377458 0.071066 -3.000000
v -2.377458 0.071066 3.000000
v -2.681087 0.359412 3.000000
v -2.681087 0.359412 -3.000000
v -2.558192 6.808049 3.000000
v -2.558192 6.808049 -3.000000
v -2.749454 3.500000 3.000000
v -2.749454 3.500000 -3.000000
v -2.168068 7.020331 3.000000
v -2.168068 7.020331 -3.000000
v -2.749454 6.448898 -3.000000
v -2.749454 6.448898 3.000000
v -2.377458 6.928934 -3.000000
v -2.377458 6.928934 3.000000
v -2.681087 6.640588 3.000000
v -2.681087 6.640588 -3.000000
v 2.586178 0.191951 3.000000
v -0.006106 0.000000 3.000000
v 2.586178 0.191951 -3.000000
v -0.006106 0.000000 -3.000000
v 2.196054 0.007790 3.000000
v 2.196054 0.007790 -3.000000
v 2.777440 0.551102 -3.000000
v 2.777440 0.551102 3.000000
v 2.405445 0.071066 -3.000000
v 2.405445 0.071066 3.000000
v 2.709074 0.359412 3.000000
v 2.709074 0.359412 -3.000000
v 2.586178 6.808049 3.000000
v -0.006106 7.797469 3.000000
v 2.586178 6.808049 -3.000000
v -0.006106 7.797469 -3.000000
v 2.777440 3.500000 3.000000
v 2.777440 3.500000 -3.000000
v 2.196054 7.020331 3.000000
v 2.196054 7.020331 -3.000000
v 2.777440 6.448898 -3.000000
v 2.777440 6.448898 3.000000
v 2.405445 6.928934 -3.000000
v 2.405445 6.928934 3.000000
v 2.709074 6.640588 3.000000
v 2.709074 6.640588 -3.000000
vt 1.490060 2.996139
vt 1.490061 3.529271
vt 0.010492 3.529273
vt 0.010491 2.996141
vt 0.010492 3.738244
vt 1.490061 3.738244
vt 1.490061 4.465426
vt 0.010492 4.465426
vt 0.010492 3.583214
vt 1.490061 3.583216
vt 0.010492 3.688055
vt 1.490061 3.688057
vt 0.010492 3.636832
vt 1.490061 3.636835
vt 1.490060 5.970503
vt 0.010491 5.970502
vt 0.010491 5.403977
vt 1.490061 5.403978
vt 0.010492 5.192610
vt 1.490061 5.192610
vt 0.010491 5.347637
vt 1.490061 5.347639
vt 0.010492 5.242796
vt 1.490061 5.242799
vt 0.010492 5.294019
vt 1.490061 5.294021
vt 0.010491 2.453096
vt 1.490060 2.453094
vt 0.010491 2.244123
vt 0.010491 1.516941
vt 1.490060 1.516941
vt 1.490060 2.244124
vt 0.010491 2.399151
vt 1.490059 2.399153
vt 0.010491 2.294310
vt 1.490060 2.294313
vt 0.010491 2.345532
vt 1.490060 2.345535
vt 0.010492 0.578390
vt 0.010493 0.002526
vt 1.490061 0.002527
vt 1.490060 0.578391
vt 0.010492 0.789758
vt 1.490060 0.789758
vt 0.010492 0.634728
vt 1.490060 0.634731
vt 0.010492 0.739570
vt 1.490060 0.739572
vt 0.010492 0.688347
vt 1.490060 0.688350
vn 0.0000 1.0000 0.0000
vn 0.1480 0.9890 0.0000
vn 0.9854 0.1704 0.0000
vn 1.0000 0.0000 0.0000
vn 0.4273 0.9041 0.0000
vn 0.8833 0.4687 0.0000
vn 0.6915 0.7223 0.0000
vn 0.0029 -1.0000 0.0000
vn 0.3693 -0.9293 0.0000
vn 0.9854 -0.1704 0.0000
vn 0.4799 -0.8773 0.0000
vn 0.8833 -0.4687 0.0000
vn 0.6915 -0.7223 0.0000
vn -0.1480 0.9890 0.0000
vn -0.9854 0.1704 0.0000
vn -1.0000 0.0000 0.0000
vn -0.4273 0.9041 0.0000
vn -0.8833 0.4687 0.0000
vn -0.6915 0.7223 0.0000
vn -0.3666 -0.9304 0.0000
vn -0.9854 -0.1704 0.0000
vn -0.4799 -0.8773 0.0000
vn -0.8833 -0.4687 0.0000
vn -0.6915 -0.7223 0.0000
usemtl Material
s 1
f 26/1/1 4/2/2 3/3/2 24/4/1
f 6/5/3 5/6/3 14/7/4 13/8/4
f 8/9/5 3/3/2 4/2/2 7/10/5
f 9/11/6 10/12/6 5/6/3 6/5/3
f 1/13/7 8/9/5 7/10/5 2/14/7
f 1/13/7 2/14/7 10/12/6 9/11/6
f 38/15/8 36/16/8 15/17/9 16/18/9
f 18/19/10 13/8/4 14/7/4 17/20/10
f 20/21/11 19/22/11 16/18/9 15/17/9
f 21/23/12 18/19/10 17/20/10 22/24/12
f 11/25/13 12/26/13 19/22/11 20/21/11
f 11/25/13 21/23/12 22/24/12 12/26/13
f 27/27/14 28/28/14 26/1/1 24/4/1
f 30/29/15 39/30/16 40/31/16 29/32/15
f 32/33/17 31/34/17 28/28/14 27/27/14
f 33/35/18 30/29/15 29/32/15 34/36/18
f 23/37/19 25/38/19 31/34/17 32/33/17
f 23/37/19 33/35/18 34/36/18 25/38/19
f 41/39/20 36/40/8 38/41/8 42/42/20
f 44/43/21 43/44/21 40/31/16 39/30/16
f 46/45/22 41/39/20 42/42/20 45/46/22
f 47/47/23 48/48/23 43/44/21 44/43/21
f 35/49/24 46/45/22 45/46/22 37/50/24
f 35/49/24 37/50/24 48/48/23 47/47/23
